<?xml version="1.0" encoding="UTF-8"?>
<svg width="24px" height="24px" viewBox="0 0 24 24" version="1.1" xmlns="http://www.w3.org/2000/svg">
    <g stroke="none" stroke-width="1" fill="none" fill-rule="evenodd">
        <path d="M9.64,7.64 C9.87,7.14 10,6.59 10,6 C10,3.79 8.21,2 6,2 C3.79,2 2,3.79 2,6 C2,8.21 3.79,10 6,10 C6.59,10 7.14,9.87 7.64,9.64 L10,12 L7.64,14.36 C7.14,14.13 6.59,14 6,14 C3.79,14 2,15.79 2,18 C2,20.21 3.79,22 6,22 C8.21,22 10,20.21 10,18 C10,17.41 9.87,16.86 9.64,16.36 L12,14 L19,21 L21,19 L9.64,7.64 Z M6,8 C4.9,8 4,7.1 4,6 C4,4.9 4.9,4 6,4 C7.1,4 8,4.9 8,6 C8,7.1 7.1,8 6,8 Z M6,20 C4.9,20 4,19.1 4,18 C4,16.9 4.9,16 6,16 C7.1,16 8,16.9 8,18 C8,19.1 7.1,20 6,20 Z M14.29,13.29 L12,15.59 L12,8.75 L17.25,3.5 L19.5,5.75 L14.29,11 L14.29,13.29 Z" fill="currentColor"/>
    </g>
</svg> 