<?xml version="1.0" encoding="UTF-8"?>
<svg width="24px" height="24px" viewBox="0 0 24 24" version="1.1" xmlns="http://www.w3.org/2000/svg">
    <g stroke="none" stroke-width="1" fill="none" fill-rule="evenodd">
        <path d="M4,14 L8,14 L8,18 L4,18 L4,14 Z M4,10 L8,10 L8,14 L4,14 L4,10 Z M8,4 L12,4 L12,8 L8,8 L8,4 Z M4,4 L8,4 L8,8 L4,8 L4,4 Z M12,14 L16,14 L16,18 L12,18 L12,14 Z M8,14 L12,14 L12,18 L8,18 L8,14 Z M12,10 L16,10 L16,14 L12,14 L12,10 Z M8,10 L12,10 L12,14 L8,14 L8,10 Z M16,4 L20,4 L20,8 L16,8 L16,4 Z M12,4 L16,4 L16,8 L12,8 L12,4 Z M16,10 L20,10 L20,14 L16,14 L16,10 Z M16,14 L20,14 L20,18 L16,18 L16,14 Z" fill="currentColor"/>
    </g>
</svg> 