<?xml version="1.0" encoding="UTF-8"?>
<svg width="24px" height="24px" viewBox="0 0 24 24" version="1.1" xmlns="http://www.w3.org/2000/svg">
    <g stroke="none" stroke-width="1" fill="none" fill-rule="evenodd">
        <path d="M12,2 C6.49,2 2,6.49 2,12 C2,17.51 6.49,22 12,22 C13.38,22 14.5,20.88 14.5,19.5 C14.5,18.9 14.27,18.36 13.88,17.96 C13.51,17.59 13.3,17.08 13.3,16.5 C13.3,15.12 14.42,14 15.8,14 L18,14 C20.21,14 22,12.21 22,10 C22,5.58 17.52,2 12,2 Z M6.5,12 C5.67,12 5,11.33 5,10.5 C5,9.67 5.67,9 6.5,9 C7.33,9 8,9.67 8,10.5 C8,11.33 7.33,12 6.5,12 Z M9.5,8 C8.67,8 8,7.33 8,6.5 C8,5.67 8.67,5 9.5,5 C10.33,5 11,5.67 11,6.5 C11,7.33 10.33,8 9.5,8 Z M14.5,8 C13.67,8 13,7.33 13,6.5 C13,5.67 13.67,5 14.5,5 C15.33,5 16,5.67 16,6.5 C16,7.33 15.33,8 14.5,8 Z M17.5,12 C16.67,12 16,11.33 16,10.5 C16,9.67 16.67,9 17.5,9 C18.33,9 19,9.67 19,10.5 C19,11.33 18.33,12 17.5,12 Z" fill="currentColor"/>
    </g>
</svg> 